<svg  class="home-service" width="72" height="73" viewBox="0 0 72 73" fill="none" xmlns="http://www.w3.org/2000/svg">
<g clip-path="url(#clip0_1102_1803)">
<path d="M68.4 46.1C70.3836 46.0889 71.9889 44.4836 72 42.5C72 40.5118 70.3882 38.9 68.4 38.9H58.152C60.7462 36.0173 60.591 31.5978 57.8011 28.9041C55.0111 26.2104 50.5889 26.2104 47.7989 28.9041C45.009 31.5978 44.8538 36.0173 47.448 38.9H37.2C35.2164 38.9112 33.6111 40.5164 33.6 42.5C33.6 44.4882 35.2118 46.1 37.2 46.1H46.8V56.0528L41.178 67.2956C40.7438 68.1694 40.6866 69.1829 41.0196 70.1H31.2C30.5373 70.1 30 70.6373 30 71.3C30 71.9628 30.5373 72.5 31.2 72.5H70.8C71.4627 72.5 72 71.9628 72 71.3C72 70.6373 71.4627 70.1 70.8 70.1H64.5816C64.9137 69.1827 64.856 68.1694 64.422 67.2956L58.8 56.0528V46.1H68.4ZM48 34.1C48 31.4491 50.149 29.3 52.8 29.3C55.451 29.3 57.6 31.4491 57.6 34.1C57.6 36.751 55.451 38.9 52.8 38.9C50.149 38.9 48 36.751 48 34.1ZM47.8248 70.1L52.806 60.1484L57.7764 70.1H47.8248ZM56.526 56.8724L62.2752 68.3684C62.5681 68.9629 62.3237 69.6823 61.7292 69.9752C61.1351 70.2531 60.4276 70.0134 60.1248 69.4316L54.7968 58.7636L53.874 56.9276C53.6707 56.5208 53.2548 56.2638 52.8 56.264C52.3455 56.2652 51.9307 56.523 51.7284 56.93L45.4716 69.4376C45.1661 70.0121 44.4655 70.2485 43.8744 69.9764C43.588 69.8364 43.3691 69.5881 43.2659 69.2865C43.1628 68.9848 43.184 68.6545 43.3248 68.3684L49.074 56.8724C49.155 56.7053 49.196 56.5217 49.194 56.336V44.9C49.194 44.2373 48.6567 43.7 47.994 43.7H37.2C36.5373 43.7 36 43.1628 36 42.5C35.9995 42.1768 36.1324 41.8677 36.3672 41.6456C36.5861 41.4217 36.8869 41.2969 37.2 41.3H68.4C69.0627 41.3 69.6 41.8373 69.6 42.5C69.6005 42.8232 69.4676 43.1323 69.2328 43.3544C69.0139 43.5783 68.7131 43.7032 68.4 43.7H57.6C56.9373 43.7 56.4 44.2373 56.4 44.9V56.336C56.3998 56.5222 56.443 56.7058 56.526 56.8724Z" fill="#2B8761"/>
<path d="M28.8237 48.481C29.6649 48.4836 30.4431 48.0358 30.8637 47.3074C31.3034 46.5677 31.3135 45.6493 30.8901 44.9002L24.1701 32.881H25.3005C26.1418 32.8841 26.9203 32.4362 27.3405 31.7074C27.7817 30.9686 27.7936 30.0501 27.3717 29.3002L21.3261 18.481H22.9605C23.8018 18.4838 24.5801 18.036 25.0005 17.3074C25.4398 16.5675 25.4495 15.6491 25.0257 14.9002L17.6649 1.72055C17.2495 0.968137 16.458 0.500977 15.5985 0.500977C14.7391 0.500977 13.9475 0.968137 13.5321 1.72055L6.17132 14.9002C5.74805 15.6487 5.75767 16.5666 6.19652 17.3062C6.61692 18.0348 7.39529 18.4826 8.23652 18.4798H9.87092L3.82532 29.3002C3.40474 30.0474 3.4148 30.9623 3.85172 31.7002C4.27194 32.429 5.05042 32.8769 5.89172 32.8738H7.02212L0.30692 44.9002C-0.116346 45.6488 -0.106733 46.5666 0.33212 47.3062C0.752702 48.0346 1.53095 48.4824 2.37212 48.4798H10.7985V59.6134C8.71766 59.1383 6.55296 59.1716 4.48772 59.7106C3.9518 59.8537 3.58387 60.3456 3.59785 60.9001C3.61183 61.4547 4.00407 61.9274 4.54652 62.0434C7.69772 62.7202 9.27932 67.2874 9.86132 70.1002H1.19852C0.535778 70.1002 -0.00147997 70.6374 -0.00147997 71.3002C-0.00147997 71.9629 0.535778 72.5002 1.19852 72.5002H25.1985C25.8613 72.5002 26.3985 71.9629 26.3985 71.3002C26.3985 70.6374 25.8613 70.1002 25.1985 70.1002H21.3345C21.9117 67.2886 23.4885 62.7226 26.6505 62.0446C27.193 61.9286 27.5852 61.4559 27.5992 60.9013C27.6132 60.3468 27.2452 59.8549 26.7093 59.7118C24.7323 59.1997 22.6643 59.1468 20.6637 59.557C21.1373 56.889 21.9494 54.2924 23.0805 51.8302C23.2786 51.4313 23.2395 50.9556 22.979 50.5945C22.7185 50.2333 22.2795 50.0461 21.8385 50.1082C21.3533 50.1789 20.8725 50.2775 20.3985 50.4034V48.4834L28.8237 48.481ZM10.1145 32.2666C10.3223 31.8949 10.3176 31.441 10.1021 31.0737C9.88666 30.7065 9.49272 30.4809 9.06692 30.481L5.92172 30.4714L12.9633 17.8714C13.1711 17.4997 13.1664 17.0458 12.9509 16.6785C12.7355 16.3113 12.3415 16.0857 11.9157 16.0858L8.26652 16.0714L15.5697 2.89055L22.9605 16.081H19.2813C18.8555 16.0809 18.4616 16.3065 18.2461 16.6737C18.0306 17.041 18.0259 17.4949 18.2337 17.8666L25.3053 30.481H22.1301C21.7043 30.4809 21.3104 30.7065 21.0949 31.0737C20.8794 31.441 20.8747 31.8949 21.0825 32.2666L28.7841 46.081H19.2069H14.8173L2.39852 46.0714L10.1145 32.2666ZM18.8937 70.1002H12.3033C11.9505 68.197 10.9569 64.1938 8.53652 61.7002C10.7757 61.8106 13.4565 62.6602 14.4525 65.863C14.6084 66.3649 15.0729 66.707 15.5985 66.707C16.1242 66.707 16.5886 66.3649 16.7445 65.863C17.7381 62.6614 20.4213 61.8106 22.6605 61.7002C20.2401 64.1938 19.2465 68.197 18.8937 70.1002ZM15.5985 62.7658C15.0711 62.0093 14.4069 61.3581 13.6401 60.8458C14.6793 57.2458 16.4913 54.7438 19.0485 53.4478C19.2357 53.3542 19.4325 53.2606 19.6725 53.1646C19.7685 53.1226 19.8669 53.083 19.9665 53.0446C19.0631 55.4508 18.4367 57.9521 18.0993 60.5002C17.1039 61.0548 16.2485 61.8298 15.5985 62.7658ZM17.9985 51.2938L17.9721 51.3058C15.985 52.3341 14.3299 53.9043 13.1985 55.8346V48.481H17.9985V51.2938Z" fill="#2B8761"/>
<path d="M63.5992 0.5C58.96 0.5 55.1992 4.26081 55.1992 8.9C55.1992 13.5392 58.96 17.3 63.5992 17.3C68.2384 17.3 71.9992 13.5392 71.9992 8.9C71.9939 4.263 68.2362 0.50529 63.5992 0.5ZM63.5992 14.9C60.2855 14.9 57.5992 12.2137 57.5992 8.9C57.5992 5.58629 60.2855 2.9 63.5992 2.9C66.9129 2.9 69.5992 5.58629 69.5992 8.9C69.5953 12.2121 66.9113 14.896 63.5992 14.9Z" fill="#2B8761"/>
<path d="M69.1106 23.4042C69.5115 23.4043 69.8859 23.2042 70.1086 22.8708C70.3314 22.5375 70.3729 22.1149 70.2194 21.7446L69.3014 19.527C69.0479 18.9146 68.3459 18.6237 67.7336 18.8772C67.1212 19.1307 66.8303 19.8326 67.0838 20.445L68.0018 22.6626C68.1873 23.1114 68.6249 23.4041 69.1106 23.4042Z" fill="#2B8761"/>
<path d="M49.1866 14.87C49.3084 15.1641 49.5421 15.3977 49.8363 15.5195C50.1304 15.6413 50.4609 15.6411 50.755 15.5192L52.9726 14.6C53.3692 14.4358 53.648 14.0725 53.7041 13.6469C53.7602 13.2214 53.585 12.7983 53.2445 12.5369C52.904 12.2756 52.45 12.2158 52.0534 12.38L49.8358 13.298C49.5408 13.4198 49.3064 13.6541 49.1846 13.9491C49.0628 14.2441 49.0635 14.5755 49.1866 14.87Z" fill="#2B8761"/>
<path d="M49.8338 4.49836L52.0514 5.41636C52.4495 5.59151 52.9111 5.53763 53.2581 5.27554C53.6051 5.01344 53.7831 4.58414 53.7234 4.1534C53.6638 3.72267 53.3758 3.3579 52.9707 3.19996L50.7578 2.28076C50.1455 2.02693 49.4433 2.31758 49.1894 2.92996C48.9356 3.54233 49.2263 4.24453 49.8386 4.49836H49.8338Z" fill="#2B8761"/>
<path d="M58.087 23.4042C58.5726 23.4041 59.0103 23.1114 59.1958 22.6626L60.1138 20.445C60.3673 19.8326 60.0764 19.1307 59.464 18.8772C58.8517 18.6237 58.1497 18.9146 57.8962 19.527L56.9782 21.7398C56.8247 22.1101 56.8662 22.5327 57.0889 22.866C57.3116 23.1994 57.6861 23.3995 58.087 23.3994V23.4042Z" fill="#2B8761"/>
</g>
<defs>
<clipPath id="clip0_1102_1803">
<rect width="72" height="72" fill="white" transform="translate(0 0.5)"/>
</clipPath>
</defs>
</svg>
