<svg  class="home-service"  width="72" height="73" viewBox="0 0 72 73" fill="none" xmlns="http://www.w3.org/2000/svg">
<g clip-path="url(#clip0_1102_1853)">
<path d="M71.1243 40.6811C70.3215 39.417 69.0743 38.5412 67.6126 38.2149C67.1249 38.1061 66.6378 38.0657 66.1607 38.0856V27.2709C66.1607 23.5523 63.1354 20.5268 59.4167 20.5268H56.483C55.9005 20.5268 55.4283 20.9989 55.4283 21.5815C55.4283 22.1641 55.9004 22.6362 56.483 22.6362H59.4167C61.9722 22.6362 64.0513 24.7154 64.0513 27.2709V38.5959C62.5162 39.3038 61.3154 40.6928 60.9197 42.466L60.8512 42.7727C59.9331 42.3211 58.9147 42.0797 57.8831 42.0797H41.6585C39.8776 42.0797 38.2577 42.7781 37.055 43.9138V36.2957C37.055 35.7131 36.5829 35.241 36.0003 35.241C35.4177 35.241 34.9456 35.7131 34.9456 36.2957V43.915C33.7307 42.7713 32.0995 42.0797 30.3421 42.0797H14.1172C13.0695 42.0797 12.0629 42.3151 11.1482 42.7684L11.0807 42.4659C10.685 40.6926 9.48416 39.3037 7.9491 38.5958V27.2708C7.9491 26.27 8.27043 25.3134 8.85093 24.5254L9.31935 25.3821C9.57923 25.8568 10.0768 26.1517 10.6179 26.1517C11.1591 26.1517 11.6565 25.8567 11.9164 25.3818L13.357 22.748L13.5644 22.6345C13.5737 22.6348 13.5828 22.6359 13.5922 22.6359H30.3109C32.8663 22.6359 34.9454 24.7151 34.9454 27.2707V31.6991C34.9454 32.2815 35.4175 32.7538 36.0001 32.7538C36.5826 32.7538 37.0548 32.2817 37.0548 31.6991V27.2707C37.0548 24.7151 39.134 22.6359 41.6894 22.6359H51.8865C52.469 22.6359 52.9412 22.1639 52.9412 21.5813C52.9412 20.9988 52.4692 20.5266 51.8865 20.5266H41.6894C39.2999 20.5266 37.1984 21.7769 36.0001 23.6563C34.8019 21.7767 32.7004 20.5266 30.3109 20.5266H16.6643C16.7255 20.3632 16.7609 20.1889 16.7609 20.0086C16.7609 19.4672 16.4658 18.9698 15.9909 18.7101L13.357 17.2696L11.9166 14.6358C11.6567 14.1608 11.1591 13.8657 10.6179 13.8657C10.0766 13.8657 9.57909 14.1609 9.31935 14.6356L7.87865 17.2696L5.24474 18.7101C4.76999 18.97 4.4751 19.4675 4.4751 20.0086C4.4751 20.5499 4.77013 21.0474 5.24488 21.3072L7.68205 22.6402C6.50348 23.8861 5.83959 25.5328 5.83959 27.2705V38.0851C5.36244 38.0653 4.87532 38.1057 4.38749 38.2145C2.92598 38.5406 1.67877 39.4166 0.875945 40.6807C0.0729763 41.9447 -0.189571 43.4458 0.136539 44.9074L2.36305 54.8865C3.13888 58.3638 6.03379 60.855 9.52635 61.1424L8.66404 62.0049C7.06345 63.6058 7.06345 66.2103 8.66404 67.811C9.43945 68.5867 10.4705 69.0138 11.5672 69.0138C12.664 69.0138 13.6949 68.5867 14.4704 67.8112L21.1108 61.1708H42.3526C42.9351 61.1708 43.4073 60.6988 43.4073 60.1162C43.4073 59.5336 42.9352 59.0615 42.3526 59.0615H10.2047C7.40882 59.0615 5.03085 57.1559 4.42209 54.4272L2.19557 44.4481C1.77552 42.5663 2.96507 40.6935 4.84705 40.2734C6.72904 39.8531 8.60188 41.0429 9.02193 42.925L10.0832 47.6817C10.6595 50.2638 12.9096 52.0672 15.5552 52.0672H56.4455C59.091 52.0672 61.3412 50.2638 61.9175 47.6815L62.9788 42.9252C63.3987 41.0431 65.2722 39.8538 67.1535 40.2734C69.0356 40.6933 70.2252 42.5662 69.8051 44.4483L67.5786 54.427C66.9698 57.1557 64.5919 59.0615 61.796 59.0615H46.9493C46.3667 59.0615 45.8946 59.5336 45.8946 60.1162C45.8946 60.6986 46.3667 61.1708 46.9493 61.1708H50.8895L57.5298 67.811C58.3054 68.5867 59.3363 69.0138 60.433 69.0138C61.5298 69.0138 62.5607 68.5867 63.3362 67.8112C64.9368 66.2103 64.9368 63.6058 63.3362 62.0048L62.4739 61.1424C65.9665 60.855 68.8614 58.3637 69.6372 54.8862L71.8637 44.9076C72.1898 43.4462 71.9273 41.9452 71.1243 40.6811ZM9.05231 19.0324C9.30149 18.8963 9.50526 18.6925 9.64138 18.4432L10.618 16.6576L11.5947 18.4432C11.7308 18.6925 11.9346 18.8964 12.1833 19.0321L13.9695 20.0091L12.1839 20.9857C11.9346 21.122 11.7306 21.3256 11.5949 21.5742L10.618 23.3604L9.64138 21.5748C9.50526 21.3256 9.30149 21.1217 9.05287 20.986L7.26665 20.0091L9.05231 19.0324ZM12.9791 66.32C12.6021 66.6971 12.1008 66.9047 11.5675 66.9047C11.0343 66.9047 10.5329 66.697 10.1559 66.3198C9.37757 65.5416 9.37757 64.275 10.1559 63.4966L12.4816 61.171H18.1278L12.9791 66.32ZM12.142 47.2227L11.6281 44.9197C12.3689 44.4408 13.2209 44.1891 14.1172 44.1891H30.3421C32.0377 44.1891 33.6385 45.1625 34.4249 46.664C34.9771 47.7185 34.9457 48.811 34.9457 49.9581H15.5551C13.9049 49.9581 12.5013 48.8333 12.142 47.2227ZM56.4455 49.9581H37.055V48.7926C37.055 46.2542 39.12 44.1891 41.6585 44.1891H57.8834C58.7801 44.1891 59.6317 44.4408 60.3724 44.9198L59.8586 47.2225C59.4993 48.8333 58.0956 49.9581 56.4455 49.9581ZM61.8446 66.32C61.4676 66.6971 60.9663 66.9047 60.433 66.9047C59.8998 66.9047 59.3984 66.697 59.0214 66.3198L53.8727 61.1711H59.519L61.8446 63.4966C62.623 64.275 62.623 65.5416 61.8446 66.32Z" fill="#2B8761"/>
<path d="M46.6129 28.9193C46.201 28.5074 45.5333 28.5074 45.1214 28.9193C44.7095 29.3312 44.7095 29.9988 45.1214 30.4107C45.5333 30.8226 46.2011 30.8226 46.6129 30.4107C47.0248 29.9988 47.0248 29.3312 46.6129 28.9193Z" fill="#2B8761"/>
<path d="M55.984 30.4107C56.3959 29.9988 56.3959 29.3312 55.984 28.9193C55.5721 28.5074 54.9044 28.5074 54.4925 28.9193C54.0806 29.3312 54.0806 29.9988 54.4925 30.4107C54.9044 30.8226 55.5721 30.8226 55.984 30.4107Z" fill="#2B8761"/>
<path d="M45.1214 35.3918C44.7095 35.8037 44.7095 36.4715 45.1214 36.8833C45.5333 37.2952 46.2011 37.2952 46.6129 36.8833C47.0248 36.4714 47.0248 35.8037 46.6129 35.3918C46.201 34.9801 45.5333 34.9801 45.1214 35.3918Z" fill="#2B8761"/>
<path d="M55.984 36.8834C56.3959 36.4715 56.3959 35.8038 55.984 35.3919C55.5721 34.98 54.9044 34.98 54.4925 35.3919C54.0806 35.8038 54.0806 36.4715 54.4925 36.8834C54.9044 37.2953 55.5721 37.2953 55.984 36.8834Z" fill="#2B8761"/>
<path d="M17.5074 28.9193C17.0955 28.5074 16.4278 28.5074 16.0159 28.9193C15.6041 29.3312 15.6041 29.9988 16.0159 30.4107C16.4278 30.8226 17.0955 30.8226 17.5074 30.4107C17.9193 29.9988 17.9193 29.3312 17.5074 28.9193Z" fill="#2B8761"/>
<path d="M26.8785 28.9193C26.4666 28.5074 25.7989 28.5074 25.387 28.9193C24.9752 29.3312 24.9752 29.9988 25.387 30.4107C25.7989 30.8226 26.4666 30.8226 26.8785 30.4107C27.2904 29.9988 27.2904 29.3312 26.8785 28.9193Z" fill="#2B8761"/>
<path d="M16.0159 35.3918C15.6041 35.8037 15.6041 36.4715 16.0159 36.8833C16.4278 37.2952 17.0955 37.2952 17.5074 36.8833C17.9193 36.4714 17.9193 35.8037 17.5074 35.3918C17.0955 34.9801 16.4278 34.9801 16.0159 35.3918Z" fill="#2B8761"/>
<path d="M25.387 35.3918C24.9752 35.8037 24.9752 36.4715 25.387 36.8833C25.7989 37.2952 26.4666 37.2952 26.8785 36.8833C27.2904 36.4714 27.2904 35.8037 26.8785 35.3918C26.4666 34.9801 25.7989 34.9801 25.387 35.3918Z" fill="#2B8761"/>
<path d="M23.1254 11.4273L25.7592 12.8679L27.1997 15.5016C27.4596 15.9767 27.9571 16.2717 28.4984 16.2717C29.0397 16.2717 29.5372 15.9767 29.7969 15.5018L31.2376 12.8679L33.8713 11.4274C34.3463 11.1676 34.6413 10.67 34.6413 10.1288C34.6413 9.58736 34.3461 9.08982 33.8714 8.83023L31.2375 7.38967L29.7971 4.7559C29.5372 4.28087 29.0397 3.98584 28.4984 3.98584C27.9571 3.98584 27.4595 4.28087 27.1999 4.75576L25.7593 7.38967L23.1255 8.83009C22.6505 9.08996 22.3555 9.5875 22.3555 10.1288C22.3555 10.6702 22.6505 11.1677 23.1254 11.4273ZM26.9334 9.1517C27.182 9.01572 27.3853 8.81237 27.5212 8.56375C27.5213 8.56361 27.5213 8.56361 27.5213 8.56347L28.4982 6.77725L29.4753 8.56375C29.6113 8.81223 29.8146 9.01572 30.0634 9.1517L31.8496 10.1286L30.0631 11.1057C29.8142 11.2419 29.6107 11.4454 29.475 11.6939L28.4981 13.4801L27.5215 11.6945C27.3855 11.4454 27.182 11.2418 26.9328 11.1055L25.1466 10.1286L26.9334 9.1517Z" fill="#2B8761"/>
</g>
<defs>
<clipPath id="clip0_1102_1853">
<rect width="72" height="72" fill="white" transform="translate(0 0.5)"/>
</clipPath>
</defs>
</svg>
