<svg  class="home-service"  width="72" height="73" viewBox="0 0 72 73" fill="none" xmlns="http://www.w3.org/2000/svg">
<path d="M20.5532 25.1602H5.29384C4.70856 25.1602 4.23438 25.6345 4.23438 26.2196V63.1209C4.23438 63.706 4.7087 64.1804 5.29384 64.1804H66.7034C67.2887 64.1804 67.7628 63.706 67.7628 63.1209V26.2196C67.7628 25.6345 67.2885 25.1602 66.7034 25.1602H24.7914C24.2061 25.1602 23.7319 25.6345 23.7319 26.2196C23.7319 26.8048 24.2062 27.2791 24.7914 27.2791H65.6439V62.0613H6.35331V27.2791H20.5532C21.1385 27.2791 21.6127 26.8048 21.6127 26.2196C21.6128 25.6345 21.1385 25.1602 20.5532 25.1602Z" fill="#2B8761"/>
<path d="M68.1151 20.9346H63.4507L40.3349 9.51725C40.3875 9.25512 40.4155 8.98428 40.4155 8.70696C40.4155 6.43868 38.5702 4.59326 36.3019 4.59326C34.0336 4.59326 32.1882 6.43868 32.1882 8.70696C32.1882 8.98428 32.2162 9.25526 32.2688 9.51725L9.153 20.9346H3.88491C1.74277 20.9346 0 22.6774 0 24.8195V64.5215C0 66.6636 1.74277 68.4064 3.88491 68.4064H49.0029C49.588 68.4064 50.0624 67.932 50.0624 67.3469C50.0624 66.7617 49.588 66.2874 49.0029 66.2874H3.88491C2.91122 66.2874 2.11908 65.4953 2.11908 64.5216V24.8195C2.11908 23.8458 2.91122 23.0537 3.88491 23.0537H44.3475C44.9328 23.0537 45.407 22.5793 45.407 21.9942C45.407 21.4091 44.9326 20.9347 44.3475 20.9347H13.9382L33.21 11.416C33.9645 12.2762 35.0705 12.8208 36.3019 12.8208C37.5334 12.8208 38.6394 12.2762 39.3938 11.416L58.6657 20.9347H48.5857C48.0005 20.9347 47.5262 21.4091 47.5262 21.9942C47.5262 22.5793 48.0005 23.0537 48.5857 23.0537H68.1151C69.0888 23.0537 69.8809 23.8458 69.8809 24.8195V64.5215C69.8809 65.4951 69.0888 66.2873 68.1151 66.2873H53.2409C52.6556 66.2873 52.1814 66.7616 52.1814 67.3467C52.1814 67.9319 52.6558 68.4062 53.2409 68.4062H68.1151C70.2572 68.4062 72 66.6634 72 64.5213V24.8195C72 22.6774 70.2574 20.9346 68.1151 20.9346ZM36.3019 10.7017C35.2021 10.7017 34.3073 9.80693 34.3073 8.70711C34.3073 7.60728 35.2021 6.71248 36.3019 6.71248C37.4017 6.71248 38.2965 7.60728 38.2965 8.70711C38.2964 9.80693 37.4016 10.7017 36.3019 10.7017Z" fill="#2B8761"/>
<path d="M18.047 39.2894C18.6322 39.2894 19.1065 38.815 19.1065 38.2299C19.1065 37.6447 18.6322 37.1704 18.047 37.1704H13.497C12.9117 37.1704 12.4375 37.6447 12.4375 38.2299V49.5582C12.4375 49.5593 12.4376 49.5603 12.4376 49.5614C12.4376 49.5626 12.4375 49.5636 12.4375 49.5647C12.4375 50.1498 12.9118 50.6241 13.497 50.6241H18.047C18.6322 50.6241 19.1065 50.1498 19.1065 49.5647C19.1065 48.9795 18.6322 48.5052 18.047 48.5052H14.5564V44.9568H18.047C18.6322 44.9568 19.1065 44.4825 19.1065 43.8973C19.1065 43.3122 18.6322 42.8379 18.047 42.8379H14.5564V39.2896H18.047V39.2894Z" fill="#2B8761"/>
<path d="M32.9227 50.6244H37.473C38.0581 50.6244 38.5324 50.15 38.5324 49.5649C38.5324 48.9797 38.0581 48.5054 37.473 48.5054H33.9822V44.957H37.473C38.0581 44.957 38.5324 44.4827 38.5324 43.8976C38.5324 43.3124 38.0581 42.8381 37.473 42.8381H33.9822V39.2898H37.473C38.0581 39.2898 38.5324 38.8155 38.5324 38.2304C38.5324 37.6452 38.0581 37.1709 37.473 37.1709H32.9227C32.3376 37.1709 31.8633 37.6452 31.8633 38.2304V49.5587C31.8633 49.5598 31.8634 49.5608 31.8634 49.5619C31.8634 49.5631 31.8633 49.564 31.8633 49.5652C31.8633 50.15 32.3375 50.6244 32.9227 50.6244Z" fill="#2B8761"/>
<path d="M20.4532 38.5146L23.4232 49.1727C23.6651 50.0411 24.4333 50.6244 25.3347 50.6244C26.236 50.6244 27.0042 50.0409 27.2461 49.1727L30.2161 38.5146C30.3732 37.951 30.0436 37.3667 29.4799 37.2096C28.9157 37.0524 28.3319 37.3823 28.1748 37.9458L25.3346 48.1381L22.4942 37.9458C22.3373 37.3822 21.7536 37.0527 21.1891 37.2096C20.6259 37.3667 20.2961 37.951 20.4532 38.5146Z" fill="#2B8761"/>
<path d="M42.865 49.5584V42.2772L47.2534 50.084C47.5012 50.5246 48.0433 50.731 48.5217 50.5666C48.9447 50.4214 49.2365 50.0119 49.2365 49.5647V38.23C49.2365 37.6449 48.7621 37.1706 48.177 37.1706C47.5919 37.1706 47.1175 37.6449 47.1175 38.23V45.5176L42.7292 37.7108C42.4929 37.2908 42.003 37.0831 41.5373 37.205C41.0711 37.3271 40.7461 37.7481 40.7461 38.23V49.5584C40.7461 50.1435 41.2204 50.6178 41.8056 50.6178C42.3908 50.618 42.865 50.1435 42.865 49.5584Z" fill="#2B8761"/>
<path d="M55.4515 50.6244C56.0368 50.6244 56.511 50.15 56.511 49.5649V39.2962H59.1092C59.6944 39.2962 60.1686 38.8219 60.1686 38.2367C60.1686 37.6516 59.6943 37.1772 59.1092 37.1772H51.7938C51.2086 37.1772 50.7344 37.6516 50.7344 38.2367C50.7344 38.8219 51.2087 39.2962 51.7938 39.2962H54.392V49.5649C54.392 50.15 54.8664 50.6244 55.4515 50.6244Z" fill="#2B8761"/>
</svg>
