<svg width="72" height="72" viewBox="0 0 72 72" fill="none" xmlns="http://www.w3.org/2000/svg">
<path d="M70.8 64.8H69.6C69.588 64.0012 69.4184 63.2126 69.1008 62.4794C68.7833 61.7463 68.3241 61.0831 67.7496 60.5279C66.9226 59.6899 65.8612 59.1222 64.7051 58.8996C64.1675 57.7907 63.3285 56.8556 62.2841 56.2013C61.2398 55.547 60.0324 55.2 58.8 55.2C57.5676 55.2 56.3602 55.547 55.3159 56.2013C54.2715 56.8556 53.4325 57.7907 52.8949 58.8996C51.7388 59.1222 50.6774 59.6899 49.8504 60.5279C49.2759 61.0831 48.8167 61.7463 48.4992 62.4794C48.1817 63.2126 48.012 64.0012 48 64.8H33.6V37.2C33.6 36.8817 33.4736 36.5765 33.2485 36.3515C33.0235 36.1264 32.7183 36 32.4 36H15.6C15.2817 36 14.9765 36.1264 14.7515 36.3515C14.5264 36.5765 14.4 36.8817 14.4 37.2V64.8H9.6V31.642L36 9.95332L62.4 31.642V52.8C62.4 53.1183 62.5264 53.4235 62.7515 53.6485C62.9765 53.8736 63.2817 54 63.6 54C63.9183 54 64.2235 53.8736 64.4485 53.6485C64.6736 53.4235 64.8 53.1183 64.8 52.8V33.6137L65.9701 34.575C66.2143 34.7758 66.5279 34.8721 66.8427 34.8429C67.1575 34.8137 67.4481 34.6614 67.6512 34.4191L71.7193 29.5711C71.8212 29.4496 71.898 29.309 71.9453 29.1576C71.9926 29.0062 72.0094 28.8469 71.9947 28.689C71.98 28.531 71.9342 28.3775 71.8599 28.2374C71.7856 28.0973 71.6843 27.9732 71.5617 27.8725L64.8 22.3181V2.4C64.7994 1.76368 64.5463 1.1536 64.0964 0.703645C63.6464 0.253696 63.0363 0.000635372 62.4 0H52.8C52.1637 0.000635372 51.5536 0.253696 51.1036 0.703645C50.6537 1.1536 50.4006 1.76368 50.4 2.4V10.4895L38.8893 1.03418C38.0656 0.386248 37.048 0.0339855 36 0.0339855C34.952 0.0339855 33.9344 0.386248 33.1108 1.03418L0.438276 27.8724C0.315747 27.9731 0.214396 28.0972 0.140079 28.2373C0.0657622 28.3774 0.0199527 28.5309 0.00529776 28.6889C-0.00935722 28.8468 0.00743298 29.0061 0.0546979 29.1575C0.101963 29.3089 0.178765 29.4495 0.280668 29.571L4.34882 34.419C4.55192 34.6613 4.84247 34.8136 5.15729 34.8428C5.4721 34.872 5.7857 34.7757 6.02988 34.5749L7.2 33.6137V64.8H1.2C0.88174 64.8 0.576515 64.9264 0.351472 65.1515C0.126428 65.3765 0 65.6817 0 66V70.8C0 71.1183 0.126428 71.4235 0.351472 71.6485C0.576515 71.8736 0.88174 72 1.2 72H70.8C71.1183 72 71.4235 71.8736 71.6485 71.6485C71.8736 71.4235 72 71.1183 72 70.8V66C72 65.6817 71.8736 65.3765 71.6485 65.1515C71.4235 64.9264 71.1183 64.8 70.8 64.8ZM52.8 2.4H62.4V20.3467L52.8 12.4609V2.4ZM5.424 31.967L2.89864 28.9576L34.6342 2.88925C35.0233 2.5824 35.5044 2.41553 36 2.41553C36.4956 2.41553 36.9767 2.5824 37.3658 2.88925L69.1014 28.9576L66.576 31.967L36.7617 7.47305C36.5471 7.29652 36.2779 7.2 36 7.2C35.7221 7.2 35.4529 7.29652 35.2383 7.47305L5.424 31.967ZM51.535 62.2377C52.0978 61.6316 52.8761 61.2706 53.7023 61.2322C53.9545 61.236 54.2015 61.1603 54.4081 61.0157C54.6148 60.8712 54.7707 60.6653 54.8537 60.4272C55.1338 59.6028 55.665 58.8868 56.3728 58.3797C57.0805 57.8727 57.9293 57.6 58.8 57.6C59.6707 57.6 60.5195 57.8727 61.2272 58.3797C61.935 58.8868 62.4662 59.6028 62.7463 60.4272C62.8267 60.667 62.9819 60.8746 63.1892 61.0196C63.3965 61.1645 63.6448 61.2391 63.8977 61.2322C64.7218 61.2791 65.497 61.6388 66.065 62.2377C66.4134 62.5692 66.693 62.9661 66.8877 63.4058C67.0825 63.8455 67.1886 64.3193 67.2 64.8H50.4C50.4114 64.3193 50.5175 63.8455 50.7123 63.4058C50.9071 62.9661 51.1866 62.5692 51.535 62.2377ZM16.8 38.4H31.2V64.8H16.8V38.4ZM69.6 69.6H2.4V67.2H69.6V69.6ZM39.6 36C39.2817 36 38.9765 36.1264 38.7515 36.3515C38.5264 36.5765 38.4 36.8817 38.4 37.2V51.6C38.4 51.9183 38.5264 52.2235 38.7515 52.4485C38.9765 52.6736 39.2817 52.8 39.6 52.8H56.4C56.7183 52.8 57.0235 52.6736 57.2485 52.4485C57.4736 52.2235 57.6 51.9183 57.6 51.6V37.2C57.6 36.8817 57.4736 36.5765 57.2485 36.3515C57.0235 36.1264 56.7183 36 56.4 36H39.6ZM55.2 43.2H49.2V38.4H55.2V43.2ZM46.8 38.4V43.2H40.8V38.4H46.8ZM40.8 45.6H46.8V50.4H40.8V45.6ZM49.2 50.4V45.6H55.2V50.4H49.2Z" fill="#2B8761"/>
</svg>
